<svg version="1" xmlns="http://www.w3.org/2000/svg" width="1569.333" height="1569.333" viewBox="0 0 1177.000000 1177.000000"><path d="M851 1.1c-23.1 2.3-50.6 10-71.4 19.7-21.9 10.4-39 22.4-61.1 42.8-21.3 19.7-30 26.9-42 34.9-28 18.6-56.6 30.1-90 36.1-14.3 2.6-50.7 2.6-66 .1-26-4.3-48.1-11.5-70.5-22.8-16.2-8.1-25-13.6-51.5-31.8C372.8 62.4 364.1 57 350 49.9c-14.4-7.2-28.8-12.2-44.9-15.7-11.7-2.4-14.4-2.6-36.1-2.6-21.7 0-24.4.2-36.1 2.6-56 12.1-101.9 47.7-126.5 98.3a181.68 181.68 0 0 0 0 158c24.7 50.7 70.4 86.2 126.5 98.3 11.7 2.4 14.4 2.6 36.1 2.6 21.7 0 24.4-.2 36.1-2.6 23.3-5 35.6-10.2 72.9-30.3 47-25.5 68.9-35.6 98.8-45.5 78-26.1 140.4-25.1 187.5 2.8 43.7 25.9 79.4 79.1 90.6 134.8 15.7 77.8-18.5 164.9-100.3 255.9-28.1 31.3-71.3 71.9-103.7 97.7-5.2 4.1-19.1 14.6-30.9 23.3-30.8 22.6-41.3 30.9-50.6 40.2-36.1 36-55.1 84.5-53.1 135.3 1.5 36.3 12.8 69.3 34 99 9 12.6 31 34.1 43.8 42.7 42.7 28.9 92.7 38.7 141.8 27.7 77.1-17.3 132.7-80.3 141-159.9.6-5.5 1.8-23.7 2.6-40.5 2.2-43.3 6.9-83.5 15.5-131 33.3-184 110.1-342.5 227.9-469.9 8.3-9 17.6-19.7 20.7-23.8 65.4-86.9 57.3-207.2-19.2-283.7C991.5 30.7 948.6 9.1 903 2.5 889.5.6 863.2-.2 851 1.1zm46.6 87.4c25.8 4.5 49.4 17.2 67.7 36.4 15.8 16.5 26.2 36.6 31.3 60.1 2.7 12.3 2.5 36.3-.3 48.5-5.9 25.5-17.9 46.6-36 63.5-21.8 20.3-47.7 31.3-77.5 32.7-53.8 2.6-103.6-31.3-120.7-82.3-8.2-24.4-8.2-53.3-.1-77.6 14.1-42.1 50.5-73.4 94.5-81.2 10.9-1.9 30.2-1.9 41.1-.1z"/></svg>