<?xml version="1.0" standalone="no"?>
<!DOCTYPE svg PUBLIC "-//W3C//DTD SVG 20010904//EN"
 "http://www.w3.org/TR/2001/REC-SVG-20010904/DTD/svg10.dtd">
<svg version="1.0" xmlns="http://www.w3.org/2000/svg"
 width="260.000000pt" height="260.000000pt" viewBox="0 0 260.000000 260.000000"
 preserveAspectRatio="xMidYMid meet">
<metadata>
Created by potrace 1.11, written by Peter Selinger 2001-2013
</metadata>
<g transform="translate(0.000000,260.000000) scale(0.100000,-0.100000)"
fill="#000000" stroke="none">
<path d="M116 2099 c-45 -24 -52 -31 -86 -78 -17 -25 -24 -50 -26 -93 -3 -72
12 -110 62 -160 l38 -39 2 -217 c1 -123 6 -239 13 -267 57 -247 214 -437 454
-551 80 -37 205 -72 282 -78 28 -3 356 -5 729 -5 l680 -1 -75 -70 -74 -69 111
-1 c107 0 112 1 140 27 214 195 235 217 221 228 -13 10 -201 181 -234 214 -12
11 -144 19 -223 12 -9 -1 12 -27 50 -63 59 -55 62 -60 35 -54 -130 31 -289
141 -367 253 -78 114 -96 198 -98 448 l-1 190 41 38 c50 45 73 97 71 155 -3
107 -76 186 -182 199 -88 10 -165 -34 -207 -121 -35 -71 -12 -179 48 -230 l28
-23 5 -234 c2 -129 7 -245 11 -259 4 -14 9 -35 12 -48 21 -101 101 -238 196
-336 27 -26 48 -50 48 -53 0 -12 -279 6 -335 21 -241 64 -435 265 -461 478 -6
47 -4 54 18 72 45 38 70 85 75 141 17 181 -197 292 -333 173 -46 -41 -66 -80
-70 -142 -4 -62 21 -124 69 -165 26 -23 34 -39 35 -66 6 -146 101 -342 228
-468 l49 -48 -115 2 c-147 3 -223 20 -337 75 -173 83 -299 241 -330 414 -3 14
-5 117 -6 230 l-2 205 34 30 c85 75 91 209 12 292 -56 59 -167 79 -235 42z
m143 -135 c28 -36 26 -70 -5 -101 -20 -20 -31 -24 -57 -19 -43 9 -67 34 -67
69 0 70 87 104 129 51z m1446 10 c19 -13 25 -25 25 -53 0 -96 -133 -108 -144
-14 -8 64 63 104 119 67z m-741 -375 c51 -40 19 -129 -46 -129 -37 0 -78 40
-78 76 0 32 42 74 74 74 13 0 35 -9 50 -21z"/>
</g>
</svg>
